<?xml version="1.0" ?><svg height="24px" version="1.1" viewBox="0 0 24 24" width="24px" xmlns="http://www.w3.org/2000/svg" xmlns:sketch="http://www.bohemiancoding.com/sketch/ns" xmlns:xlink="http://www.w3.org/1999/xlink"><title/><desc/><defs/><g fill="none" fill-rule="evenodd" id="miu" stroke="none" stroke-width="1"><g id="Artboard-1" transform="translate(-467.000000, -659.000000)"><g id="slice" transform="translate(215.000000, 119.000000)"/><path d="M479,682 C485.075133,682 490,677.075133 490,671 C490,664.924867 485.075133,660 479,660 C472.924867,660 468,664.924867 468,671 C468,677.075133 472.924867,682 479,682 Z M480.0118,674.330947 C482.433856,674.330947 484.076923,672.076918 484.076923,669.059714 C484.076923,666.778897 482.183875,664.653846 479.307535,664.653846 C475.728011,664.653846 473.923077,667.273754 473.923077,669.458443 C473.923077,670.781295 474.413319,671.958192 475.465936,672.396828 C475.638385,672.468703 475.792908,672.399143 475.843121,672.204353 C475.877459,672.069312 475.960498,671.728677 475.996564,671.587022 C476.0471,671.394106 476.027663,671.32653 475.888365,671.158308 C475.585149,670.792539 475.391644,670.319951 475.391644,669.649816 C475.391644,667.706326 476.815398,665.966446 479.100748,665.966446 C481.123375,665.966446 482.235491,667.228116 482.235491,668.913869 C482.235491,671.13141 481.274227,673.003024 479.846802,673.003024 C479.058311,673.003024 478.468832,672.33763 478.657586,671.521651 C478.883594,670.547371 479.322869,669.495483 479.322869,668.792167 C479.322869,668.162931 478.991901,667.637428 478.306642,667.637428 C477.500766,667.637428 476.853624,668.488683 476.853624,669.62843 C476.853624,670.354345 477.094318,670.845453 477.094318,670.845453 C477.094318,670.845453 476.269653,674.411972 476.124848,675.036358 C475.993541,675.604963 475.973888,676.229901 475.992353,676.758049 C476.047532,677.231851 476.506459,677.617682 476.904592,677.097912 C477.184484,676.641197 477.485432,676.064434 477.641143,675.486348 C477.734009,675.14428 478.171339,673.372321 478.171339,673.372321 C478.433414,673.882059 479.198473,674.330947 480.0118,674.330947 Z" fill="#000000" id="circle-social-pinterest-glyph"/></g></g></svg>